<svg xmlns="http://www.w3.org/2000/svg" viewBox="0 0 646.58 143.68"><g id="Слой_2" data-name="Слой 2"><g id="new"><g id="logo_velas" data-name="logo velas"><path d="M274.43,26.94h-.09l0,.08-26,66.87L222.41,27l0-.08H202.06l.07.17,37.07,89.55,0,.08h18.26l0-.08,37.07-89.55.07-.17H274.43Zm-17,89.68h-18.1L219,67.64l20.27,49ZM646.58,89.84a25.15,25.15,0,0,1-5.45,16.38,30.3,30.3,0,0,1-13.72,9.54,56.3,56.3,0,0,1-18.52,2.86c-19.92,0-33-7.42-39-22.07l-.23-.58,0-.1.1-.06,15-7.78.13-.06,0,.13.28.69a18.93,18.93,0,0,0,9.09,10,31.74,31.74,0,0,0,14.87,3.42c5.61,0,10.33-1.06,14-3.16a9.82,9.82,0,0,0,5.37-9.21c0-6.67-6.6-10.75-19.61-12.12a93.83,93.83,0,0,1-13.23-2.34A48.53,48.53,0,0,1,584.79,71a20.2,20.2,0,0,1-8.28-8.23,25.89,25.89,0,0,1-2.8-12.42,22.22,22.22,0,0,1,5.47-15.09,29.43,29.43,0,0,1,13-8.7,54.5,54.5,0,0,1,16.29-2.61h0c17.56,0,29.42,6,35.23,17.89l.29.6.05.11-.11,0L629.64,50l-.1.06-.06-.1-.33-.55c-1.5-2.53-4.15-4.75-7.88-6.59A27.37,27.37,0,0,0,609,40c-5.74,0-10.15,1-13.09,3.11a9.07,9.07,0,0,0-4.3,7.75,6.49,6.49,0,0,0,2.59,5.33,16.82,16.82,0,0,0,6.47,3.17,79.73,79.73,0,0,0,9.81,1.74c4.09.5,7.74,1.1,10.86,1.77A54.74,54.74,0,0,1,631,66a28.43,28.43,0,0,1,8.2,5,22.42,22.42,0,0,1,5.28,7.8A28.15,28.15,0,0,1,646.58,89.84ZM379.8,26.94h.13V44.61H330.62V63.2h47.55v17H330.62V98.45h49.31v17.92H312.58V26.94H379.8ZM527,27l0-.08H508.69l0,.08-37.07,89.55-.07.17h20.32l0-.08,26-66.87,25.89,66.87,0,.08h20.32l-.07-.17Zm-.11.05h0l20.27,49ZM416.12,98.45h45.17v1.13h0v16.79H398V26.94h18.17V98.45Z"/><path d="M114.06,53.88,83,107.76,51.85,53.88h62.21m31.11-18H20.74L83,143.68,145.17,35.92ZM0,0,10.37,18H155.54L165.91,0Z"/></g></g></g></svg>